HIERARCHY
ROOT Hips
{
  OFFSET 90.7885 88.945 -76.2838
  CHANNELS 6 Xposition Yposition Zposition Zrotation Xrotation Yrotation
  JOINT LeftUpLeg
  {
    OFFSET 8.64259 1.95398 -2.38835
    CHANNELS 3 Zrotation Xrotation Yrotation
    JOINT LeftLeg
    {
      OFFSET 43.7702 0 0
      CHANNELS 3 Zrotation Xrotation Yrotation
      JOINT LeftFoot
      {
        OFFSET 40.6238 0 0
        CHANNELS 3 Zrotation Xrotation Yrotation
        JOINT LeftToeBase
        {
          OFFSET 12.7242 0 0
          CHANNELS 3 Zrotation Xrotation Yrotation
          End Site
          {
            OFFSET 0 0 0
          }
        }
      }
    }
  }
  JOINT RightUpLeg
  {
    OFFSET -8.2249 1.95398 -2.59336
    CHANNELS 3 Zrotation Xrotation Yrotation
    JOINT RightLeg
    {
      OFFSET 43.5653 0 0
      CHANNELS 3 Zrotation Xrotation Yrotation
      JOINT RightFoot
      {
        OFFSET 40.6238 0 0
        CHANNELS 3 Zrotation Xrotation Yrotation
        JOINT RightToeBase
        {
          OFFSET 12.7242 0 0
          CHANNELS 3 Zrotation Xrotation Yrotation
          End Site
          {
            OFFSET 0 0 0
          }
        }
      }
    }
  }
  JOINT Spine
  {
    OFFSET 0.165834 0.87714 6.61349
    CHANNELS 3 Zrotation Xrotation Yrotation
    JOINT Spine1
    {
      OFFSET 7.38963 1.71661e-005 0
      CHANNELS 3 Zrotation Xrotation Yrotation
      JOINT Spine2
      {
        OFFSET 11.9445 1.14441e-005 0
        CHANNELS 3 Zrotation Xrotation Yrotation
        JOINT Spine3
        {
          OFFSET 14.7254 4.19617e-005 0
          CHANNELS 3 Zrotation Xrotation Yrotation
          JOINT Spine4
          {
            OFFSET 10.9679 0 0
            CHANNELS 3 Zrotation Xrotation Yrotation
            JOINT RightShoulder
            {
              OFFSET 2.46616 -1.6653 3.69651
              CHANNELS 3 Zrotation Xrotation Yrotation
              JOINT RightArm
              {
                OFFSET 13.0012 0 0
                CHANNELS 3 Zrotation Xrotation Yrotation
                JOINT RightForeArm
                {
                  OFFSET 28.7848 1.52588e-005 0
                  CHANNELS 3 Zrotation Xrotation Yrotation
                  JOINT RightHand
                  {
                    OFFSET 26.5688 1.52588e-005 0
                    CHANNELS 3 Zrotation Xrotation Yrotation
                    End Site
                    {
                      OFFSET 0 0 0
                    }
                  }
                }
              }
            }
            JOINT LeftShoulder
            {
              OFFSET 2.38034 -1.29275 -3.7523
              CHANNELS 3 Zrotation Xrotation Yrotation
              JOINT LeftArm
              {
                OFFSET 16.3182 6.10352e-005 0
                CHANNELS 3 Zrotation Xrotation Yrotation
                JOINT LeftForeArm
                {
                  OFFSET 27.0901 0 0
                  CHANNELS 3 Zrotation Xrotation Yrotation
                  JOINT LeftHand
                  {
                    OFFSET 24.5451 1.52588e-005 0
                    CHANNELS 3 Zrotation Xrotation Yrotation
                    End Site
                    {
                      OFFSET 0 0 0
                    }
                  }
                }
              }
            }
            JOINT Neck
            {
              OFFSET 5.0226 -0.0266342 0
              CHANNELS 3 Zrotation Xrotation Yrotation
              JOINT Head
              {
                OFFSET 6.69363 2.86102e-005 0
                CHANNELS 3 Zrotation Xrotation Yrotation
                End Site
                {
                  OFFSET 0 0 0
                }
              }
            }
          }
        }
      }
    }
  }
}
MOTION
Frames:	18
Frame Time:	0.0416667
-99.536 23.0786 115.362 -9.71189 -11.1317 -89.664 -145.484 26.8804 110.734 -63.1218 24.2318 -15.8071 84.9662 8.3711 -9.38948 31.5417 -7.85278 11.7855 167.816 9.64266 80.7128 -42.067 -18.1082 -0.613937 78.1138 -8.1606 1.83407 26.6767 -1.95409 4.86825 -0.0469367 6.99442 -89.4544 12.883 0.168344 1.07056 1.21162 0.215272 1.06208 -21.32 -0.161177 1.07164 -1.30738 -0.161187 1.07164 85.2711 -29.6067 -116.19 -126.67 73.4734 122.431 -58.5829 -18.8693 -151.081 -39.7362 -9.09575 10.0519 -91.1813 -46.0935 76.0142 -20.5016 -31.4378 -73.5739 56.2565 -10.7736 -101.336 -8.59339 -0.277964 -0.921662 46.2349 -1.56185 1.8211 -8.54321 -2.44019 -0.276972 
-98.1339 24.1096 117.467 -9.75714 -7.12977 -89.0479 -148.239 22.015 110.632 -59.8726 19.4627 -15.2145 72.5281 4.40118 -7.2962 30.4961 -7.64758 11.4264 166.813 13.2148 79.6805 -45.893 -18.0609 0.113072 78.2907 -8.15349 2.31459 28.5028 -2.33352 5.53968 0.296688 6.96138 -89.6382 12.9491 0.762707 0.630825 1.27822 0.789723 0.596651 -21.2567 0.537861 0.830875 -1.24407 0.537858 0.830895 84.5583 -28.0468 -118.412 -125.254 74.5546 118.343 -58.764 -23.4117 -142.859 -41.2849 -7.49834 4.6164 -91.2595 -46.1402 75.903 -20.1651 -29.1341 -75.5943 59.1825 -9.32407 -98.979 -8.88982 -0.322501 -0.307441 45.1327 -0.559726 3.79115 -8.24076 -2.44564 -1.9979 
-96.3365 25.0156 119.456 -9.71181 -3.12019 -87.9582 -151.662 16.8863 110.385 -52.4752 10.8125 -15.9996 73.3305 4.59211 -7.57577 27.7046 -7.62687 11.293 166.776 16.2521 78.7708 -48.4195 -20.7943 0.0998361 79.6738 -8.64665 3.26683 29.3495 -2.25509 5.25227 0.703523 6.99048 -89.889 12.893 1.45022 0.047913 1.22289 1.45092 -0.0159845 -21.3181 1.36876 0.481634 -1.30547 1.36877 0.48162 86.1433 -24.7018 -117.114 -127.476 76.2722 119.769 -60.5855 -26.4876 -137.49 -40.9751 -6.83512 2.78851 -91.0526 -44.2782 75.7498 -23.4142 -27.4347 -79.2906 61.4199 -7.85131 -97.7873 -10.5315 -0.439115 0.505213 45.2095 -0.186058 3.86274 -8.62051 -2.13681 -1.88882 
-93.9964 26.0348 121.201 -10.3454 -2.06975 -88.2777 -152.712 14.4461 109.42 -43.0218 9.93544 -17.7335 81.0111 6.55599 -10.1835 30.6517 -9.88878 14.9323 165.539 18.3885 76.8912 -50.6719 -23.0982 0.538655 81.8514 -9.80492 2.23756 32.166 -2.69301 6.10107 0.768611 7.14661 -90.1106 12.5848 1.47405 -0.394254 0.914601 1.45528 -0.458761 -21.6273 1.52435 0.0670769 -1.61468 1.52438 0.0670967 87.1361 -21.3027 -116.988 -128.016 78.2698 117.818 -60.635 -29.4839 -129.916 -40.346 -6.03374 0.836062 -91.2555 -45.2613 75.6906 -25.3287 -25.7728 -84.5382 65.7811 -5.81766 -96.1051 -12.6117 -0.460155 -0.233613 45.6643 0.949189 6.0447 -8.74348 -2.17574 -3.55696 
-91.9147 27.2175 122.396 -11.2649 -1.05492 -88.0581 -153.152 16.0203 108.943 -42.0209 14.3128 -16.8569 84.5798 7.82157 -9.78097 33.9616 -10.3591 16.049 164.971 20.6287 76.143 -54.3919 -22.7945 0.837512 83.3789 -10.4322 2.35895 36.1301 -1.40951 1.95374 0.870195 7.32353 -90.1043 12.2309 1.6802 -0.39613 0.560946 1.66115 -0.469718 -21.9829 1.72154 0.127302 -1.97029 1.72154 0.127269 87.2365 -21.6952 -116.53 -129.074 81.0426 114.663 -62.1116 -32.0626 -121.863 -37.7901 -5.36399 -0.328944 -91.2207 -40.9105 74.5593 -29.1109 -24.0793 -88.2075 71.265 -3.42621 -95.3591 -13.8325 -0.451246 -0.776151 45.1538 -0.337981 3.48391 -7.83354 -2.12799 -1.12752 
-90.3784 28.1215 123.759 -11.9003 1.43914 -88.0289 -152.84 17.8936 108.97 -46.4979 15.4401 -16.0849 86.9096 8.1362 -12.1371 34.0312 -10.3871 16.111 165.18 24.2408 75.7366 -60.2353 -21.4076 0.727348 84.1386 -10.7931 1.93702 34.0579 -1.13691 1.6515 0.946633 7.38192 -90.1188 12.115 1.82568 -0.438225 0.445207 1.80463 -0.518183 -22.1002 1.87294 0.130917 -2.08759 1.87295 0.130919 86.4335 -20.5325 -119.023 -110.806 83.1814 94.3023 -59.7985 -34.3643 -112.186 -38.8218 -4.73391 -2.33774 -90.5566 -39.5028 75.2682 -29.539 -23.759 -90.51 72.9458 -0.753243 -94.2125 -14.1013 -0.582242 0.41676 43.9578 -0.242336 3.29239 -7.37876 -1.88267 -1.51371 
-89.5903 28.0419 125.341 -12.1534 2.05004 -87.6559 -152.267 19.662 108.869 -50.583 17.626 -15.4099 88.1571 8.6309 -12.0886 32.0267 -10.3979 15.8779 163.425 25.765 74.8605 -62.4089 -20.7359 1.5388 83.8002 -10.6687 1.66133 34.4814 -0.92767 0.982485 0.928485 7.31341 -90.2602 12.2539 1.72209 -0.712258 0.583905 1.68907 -0.787393 -21.9603 1.8565 -0.161612 -1.94764 1.85651 -0.16161 87.3751 -20.1691 -117.151 -122.791 87.0743 105.944 -65.7498 -35.0244 -111.149 -33.8968 -4.63845 -2.09039 -89.8742 -38.216 76.0737 -31.5166 -21.7809 -91.834 75.376 0.86582 -93.6864 -14.7336 -0.515724 -0.438222 44.7721 0.508339 3.43378 -7.87598 -1.25019 -2.0411 
-89.2813 26.7968 126.869 -12.5439 2.7178 -86.9982 -150.733 20.9213 109.415 -55.1943 18.5158 -15.1162 87.4072 8.36603 -12.5034 32.6404 -10.7884 16.5803 162.398 25.2287 73.677 -62.2468 -22.2226 1.8153 83.5187 -10.5326 1.83985 35.9163 -0.957917 0.718394 1.02285 7.19896 -90.3177 12.4841 1.88099 -0.851761 0.814153 1.84168 -0.933736 -21.7316 2.05 -0.246848 -1.71893 2.04998 -0.246871 89.3309 -18.9063 -113.421 159.489 86.6939 -171.144 -69.7525 -33.5613 -117.944 -30.4984 -5.16075 0.751469 -91.989 -36.1945 71.8006 -31.9346 -22.8632 -91.0659 76.2218 2.45808 -93.4263 -15.2331 -0.496764 -0.768345 46.7489 -1.01898 -0.364659 -9.84188 -0.832064 1.10812 
-89.375 25.0157 128.375 -12.6472 1.90761 -86.7702 -150.059 20.4063 109.497 -56.7152 19.7337 -14.9589 88.0811 8.54825 -12.4405 31.987 -11.0041 16.839 160.5 23.874 71.5118 -60.6582 -24.1536 2.45917 84.0039 -10.5483 2.76565 35.1993 -0.822586 0.520005 1.01643 7.03432 -90.4071 12.8144 1.82361 -1.03178 1.14427 1.77646 -1.11104 -21.4003 2.04937 -0.435806 -1.38767 2.0494 -0.435806 90.6684 -14.6992 -112.701 -164.421 82.1746 165.836 -67.5915 -27.7227 -131.901 -26.7739 -5.33552 4.04309 -89.9829 -36.4937 75.3947 -32.2165 -16.5866 -91.5103 76.8063 2.43657 -92.7762 -15.881 -0.487903 -1.01554 46.8917 -0.271405 1.25988 -9.98888 -0.906825 -0.624556 
-89.7989 23.499 129.682 -12.4147 0.218341 -86.4109 -151.666 17.9078 108.952 -54.302 18.5303 -14.5176 90.3808 8.909 -13.3408 31.6529 -10.307 15.6834 158.139 22.2947 69.758 -58.181 -26.2283 3.64906 83.4911 -10.2514 3.0136 34.4095 -0.547265 -0.0333689 1.05526 6.8723 -90.3844 13.1389 1.9095 -1.00526 1.4689 1.8634 -1.08835 -21.0768 2.12328 -0.384724 -1.06418 2.12331 -0.384695 90.301 -17.9036 -111.734 -142.129 78.7761 157.474 -63.7991 -19.7511 -144.278 -29.1923 -6.70607 8.36173 -90.8346 -30.8412 72.0237 -37.2143 -14.7736 -90.6256 78.9525 2.78676 -93.6922 -15.7314 -0.536421 -0.558131 45.8175 -2.37052 -1.7842 -9.11264 -1.39684 2.29689 
-89.7328 22.7369 131.04 -11.8391 -1.86571 -87.1677 -152.969 16.5427 106.578 -54.2582 16.2534 -14.1657 92.5236 9.4346 -13.7664 31.5531 -10.6745 16.2573 156.627 22.5321 66.8085 -56.1986 -30.3912 4.12614 81.8418 -9.63988 2.85686 36.2692 -0.757323 0.0554432 1.1067 6.78527 -90.4872 13.3147 1.96081 -1.22283 1.64461 1.9051 -1.30797 -20.9011 2.23763 -0.576782 -0.888399 2.23764 -0.5768 87.0848 -25.2534 -114.849 -132.992 69.39 149.429 -62.1066 -18.7809 -150.616 -33.4459 -7.91792 8.994 -88.6046 -33.2015 76.932 -36.0771 -6.90944 -92.8605 79.1394 2.99543 -92.4748 -15.0295 -0.576575 0.00740942 45.6993 -1.74469 2.12857 -9.21456 -2.81978 0.415158 
-89.2278 22.183 132.558 -11.0622 -6.21162 -88.3635 -154.94 16.8611 103.239 -56.0973 16.0639 -12.7571 93.2009 9.75353 -13.5242 32.8143 -10.6606 16.3982 153.361 23.0716 62.7622 -53.7707 -34.3319 5.59779 80.6305 -9.21098 2.67512 38.5865 -1.21433 0.781189 0.980762 6.79426 -90.6293 13.296 1.6423 -1.46657 1.6252 1.5762 -1.53743 -20.9153 2.00709 -0.905146 -0.90261 2.00712 -0.905135 87.0063 -26.2211 -114.493 -135.124 60.546 146.66 -58.0822 -22.8795 -154.999 -36.2609 -8.35554 8.93196 -87.9344 -33.9113 78.335 -37.7058 -4.44175 -95.6035 78.3176 3.04081 -92.2992 -15.1146 -0.613712 0.312255 44.8739 -1.28367 5.69789 -8.30579 -4.25206 -0.185352 
-88.6478 22.4985 133.765 -9.63977 -7.94256 -91.1432 -157.055 17.2971 98.976 -55.971 16.9813 -12.1799 93.3913 9.60682 -14.2774 31.4846 -11.1966 17.0747 152.212 27.2137 59.1604 -54.5436 -36.5561 5.88127 79.7137 -8.95801 2.27395 39.5643 -1.3583 0.963765 0.788886 6.66687 -90.646 13.5472 1.25153 -1.45582 1.87596 1.18624 -1.50946 -20.6604 1.63119 -1.01237 -0.64776 1.63116 -1.01237 88.8021 -24.1684 -111.783 -133.785 68.1477 141.257 -55.0536 -23.3135 -154.441 -37.5027 -8.59526 10.2307 -87.3404 -35.0497 79.7031 -40.345 -4.9062 -96.185 77.6273 3.29215 -92.642 -14.4762 -0.626507 0.682371 38.9217 -0.103471 8.52112 -5.92274 -4.182 -0.219332 
-87.9197 23.3342 135.022 -8.63849 -5.17688 -94.2442 -157.675 16.5508 95.0849 -53.9845 17.7947 -13.5219 92.9195 9.81985 -13.2201 33.0311 -10.7484 16.5685 153.157 33.4634 56.7977 -58.8303 -34.1718 4.90926 80.9075 -9.37259 3.17004 37.5625 -0.49297 -1.11283 0.549044 6.5744 -90.6958 13.7283 0.750277 -1.49314 2.05664 0.683835 -1.52471 -20.4755 1.1643 -1.19868 -0.462841 1.16429 -1.19867 89.4667 -22.5756 -111.141 -142.421 85.4941 144.429 -55.7706 -16.0532 -147.318 -31.2302 -7.78365 13.2006 -85.8297 -35.2387 82.4687 -45.2236 -9.75374 -95.4866 75.5015 3.70268 -93.6005 -14.1607 -0.660265 1.13841 30.252 2.73122 13.1492 -2.75183 -2.67367 -2.0463 
-86.619 23.8756 135.475 -7.77239 -3.40359 -96.2116 -157.383 17.8033 93.0666 -54.6775 19.7287 -14.1576 92.6862 9.81812 -13.0843 34.2568 -10.7869 16.8147 151.802 33.9628 56.7338 -55.527 -29.4158 5.76076 87.2728 -11.6149 5.12475 40.0979 0.388899 -4.77612 0.337743 6.51425 -90.7799 13.845 0.289385 -1.60233 2.17308 0.21859 -1.61353 -20.3556 0.757543 -1.44132 -0.342937 0.757513 -1.44135 91.0488 -19.5635 -109.052 48.4705 77.8843 -49.2085 -59.5548 -11.4866 -138.977 -29.9894 -7.81749 14.8276 -85.7116 -33.3432 82.2947 -52.0749 -15.7952 -95.7861 74.018 5.19235 -94.6136 -13.6826 -0.553467 0.30874 26.3625 4.58251 16.7175 -1.39819 -1.7881 -1.57421 
-84.993 24.1567 134.539 -7.88557 -4.37182 -97.4598 -157.402 19.5876 92.8344 -56.8159 22.8294 -13.7154 93.2513 10.0053 -13.2802 36.0346 -10.2024 16.0373 149.615 26.8798 57.4819 -44.1009 -21.0025 6.45212 91.7844 -13.1683 6.04316 39.8705 0.350537 -4.48637 -0.0240908 6.50589 -90.8264 13.8561 -0.450575 -1.59624 2.18429 -0.520376 -1.57485 -20.3431 0.0499266 -1.65783 -0.330415 0.0499118 -1.65783 90.1479 -20.9754 -110.425 39.8785 69.8281 -48.3421 -61.7058 -11.7922 -133.023 -29.3294 -7.59216 14.8648 -86.7054 -31.8453 80.096 -55.7695 -22.9698 -96.3077 71.5202 6.61935 -94.5379 -13.0075 -0.491141 -0.0684221 26.1238 5.98874 18.2752 -1.90736 -0.966704 -1.082 
-83.5143 24.551 132.341 -9.45656 -7.63831 -97.8301 -156.495 21.8982 93.8776 -61.8938 25.3566 -11.9623 93.8323 10.2939 -13.2445 37.5897 -10.8688 17.4418 150.663 17.3709 58.6164 -39.4939 -8.92056 4.97371 77.6335 -7.75375 3.08642 33.9518 -1.08353 1.53104 -0.562273 6.6513 -90.8611 13.5592 -1.53277 -1.52631 1.88838 -1.59847 -1.45741 -20.6432 -1.00328 -1.91632 -0.630579 -1.00328 -1.91636 90.54 -21.1975 -109.419 41.5158 62.0167 -54.7593 -62.7895 -11.0671 -128.753 -26.1545 -6.65846 14.1696 -87.1459 -28.8207 78.4571 -60.806 -28.6277 -98.1973 70.4858 8.65701 -94.391 -12.7206 -0.355737 -1.44167 26.8145 6.84653 17.86 -1.44815 -0.0975246 0.53729 
-81.5409 24.9193 129.727 -10.0732 -10.385 -97.7988 -153.943 25.677 94.8444 -68.9944 26.9726 -10.1924 94.7396 10.8806 -12.6682 34.0013 -10.599 16.4498 152.91 8.84428 61.0564 -34.156 -8.89362 3.25788 69.1314 -4.23458 1.30212 30.1078 -1.66729 3.7436 -1.0345 6.70119 -90.848 13.4569 -2.46268 -1.38254 1.78768 -2.52113 -1.27279 -20.7543 -1.93337 -2.05879 -0.741702 -1.93337 -2.05881 90.7301 -21.2932 -108.941 42.0059 55.7119 -59.1627 -64.2241 -10.7247 -125.668 -23.8722 -6.02993 13.5402 -87.1331 -25.3849 77.4717 -65.8937 -34.2158 -100.696 68.3641 10.9191 -93.7351 -13.0618 -0.209048 -3.0939 27.7823 7.75898 16.2826 -1.4837 1.23437 0.966458 
